<svg width="24" height="24" viewBox="0 0 24 24" fill="none" xmlns="http://www.w3.org/2000/svg">
<path d="M21.6 4H2.4C1.08 4 0 4.9 0 6V18C0 19.1 1.08 20 2.4 20H21.6C22.92 20 24 19.1 24 18V6C24 4.9 22.92 4 21.6 4ZM21.6 18H2.4V6H21.6V18ZM2.4 0H21.6V2H2.4V0ZM2.4 22H21.6V24H2.4V22ZM12 12C12.7956 12 13.5587 11.7366 14.1213 11.2678C14.6839 10.7989 15 10.163 15 9.5C15 8.83696 14.6839 8.20107 14.1213 7.73223C13.5587 7.26339 12.7956 7 12 7C11.2044 7 10.4413 7.26339 9.87868 7.73223C9.31607 8.20107 9 8.83696 9 9.5C9 10.163 9.31607 10.7989 9.87868 11.2678C10.4413 11.7366 11.2044 12 12 12ZM12 8.5C12.66 8.5 13.2 8.95 13.2 9.5C13.2 10.05 12.66 10.5 12 10.5C11.34 10.5 10.8 10.05 10.8 9.5C10.8 8.95 11.34 8.5 12 8.5ZM18 15.99C18 13.9 14.028 13 12 13C9.972 13 6 13.9 6 15.99V17H18V15.99ZM8.172 15.5C8.904 14.98 10.608 14.5 12 14.5C13.404 14.5 15.108 14.98 15.84 15.5H8.172Z" fill="white"/>
</svg>
