<svg width="18" height="18" viewBox="0 0 18 18" fill="none" xmlns="http://www.w3.org/2000/svg">
<path d="M2 2H8C8.55 2 9 1.55 9 1C9 0.45 8.55 0 8 0H2C0.9 0 0 0.9 0 2V16C0 17.1 0.9 18 2 18H8C8.55 18 9 17.55 9 17C9 16.45 8.55 16 8 16H2V2Z" fill="#F5F5F5"/>
<path d="M17.65 8.64998L14.86 5.85998C14.7905 5.78853 14.7012 5.73946 14.6036 5.71905C14.506 5.69863 14.4045 5.70781 14.3121 5.74539C14.2198 5.78298 14.1408 5.84727 14.0851 5.93003C14.0295 6.0128 13.9999 6.11027 14 6.20998V7.99998H7C6.45 7.99998 6 8.44998 6 8.99998C6 9.54998 6.45 9.99998 7 9.99998H14V11.79C14 12.24 14.54 12.46 14.85 12.14L17.64 9.34998C17.84 9.15998 17.84 8.83998 17.65 8.64998Z" fill="#F5F5F5"/>
</svg>
